<svg t="1703063250004" class="icon" viewBox="0 0 1024 1024" version="1.1" xmlns="http://www.w3.org/2000/svg" p-id="1684" width="48" height="48"><path d="M310.272 555.8272c-7.68 0-15.36-2.8672-21.2992-8.6016a30.67392 30.67392 0 0 1-0.8192-43.4176l125.0816-129.9968c11.776-12.2368 28.3136-18.688 45.2608-17.664 16.9984 1.024 32.5632 9.4208 42.8032 23.04l78.5408 104.704 119.296-127.0784a30.68928 30.68928 0 0 1 43.4176-1.3824 30.68928 30.68928 0 0 1 1.3824 43.4176l-122.1632 130.1504a57.79968 57.79968 0 0 1-45.4144 18.176c-17.152-0.9216-32.8704-9.3696-43.1616-23.0912L454.6048 419.4304l-122.1632 127.0272a30.8992 30.8992 0 0 1-22.1696 9.3696z" fill="#7690F3" p-id="1685"></path><path d="M759.3984 119.2448H271.0016c-96.3584 0-174.7456 79.5648-174.7456 177.3568v297.1136c0 97.792 78.3872 177.3568 174.7456 177.3568h214.0672v51.1488H310.2208c-16.9472 0-30.72 13.7728-30.72 30.72s13.7728 30.72 30.72 30.72h417.3312c16.9472 0 30.72-13.7728 30.72-30.72s-13.7728-30.72-30.72-30.72h-181.0944v-51.1488h212.8896c96.3584 0 174.7456-79.5648 174.7456-177.3568V296.6016c0.0512-97.792-78.336-177.3568-174.6944-177.3568z m113.3056 474.4704c0 63.8976-50.8416 115.9168-113.3056 115.9168H271.0016c-62.464 0-113.3056-52.0192-113.3056-115.9168V296.6016c0-63.8976 50.8416-115.9168 113.3056-115.9168h488.3968c62.464 0 113.3056 52.0192 113.3056 115.9168v297.1136z" fill="#333333" p-id="1686"></path></svg>